<svg width="140" height="60" viewBox="0 0 140 60" fill="none" xmlns="http://www.w3.org/2000/svg">
<g id="Clip path group">
<mask id="mask0_892_8028" style="mask-type:luminance" maskUnits="userSpaceOnUse" x="0" y="0" width="140" height="60">
<g id="clip-DataGovNewLogo">
<path id="Vector" d="M140 0H0V60H140V0Z" fill="white"/>
</g>
</mask>
<g mask="url(#mask0_892_8028)">
<g id="DataGovNewLogo">
<g id="Group 45058">
<g id="Clip path group_2">
<mask id="mask1_892_8028" style="mask-type:luminance" maskUnits="userSpaceOnUse" x="0" y="0" width="140" height="60">
<g id="clip-path">
<path id="Rectangle 19670" d="M139.067 0.722656H0.798828V59.2771H139.067V0.722656Z" fill="white"/>
</g>
</mask>
<g mask="url(#mask1_892_8028)">
<g id="Group 45057">
<path id="Path 208169" d="M20.1185 21.5205C20.0964 21.4987 20.0791 21.4726 20.0677 21.4438C20.0563 21.4151 20.051 21.3843 20.0522 21.3534V16.0217C20.0501 15.9901 20.055 15.9584 20.0664 15.9287C20.0779 15.8991 20.0956 15.8723 20.1185 15.85C20.1649 15.8085 20.2258 15.7864 20.2884 15.7882H22.2288C23.9598 15.7882 24.8253 16.6143 24.8253 18.2667V21.3534C24.8265 21.3843 24.8212 21.4151 24.8098 21.4438C24.7984 21.4726 24.7811 21.4987 24.759 21.5205C24.7368 21.5425 24.7103 21.5597 24.6811 21.5712C24.6518 21.5826 24.6206 21.588 24.5892 21.587H20.2856C20.2542 21.5879 20.2229 21.5825 20.1937 21.5711C20.1645 21.5597 20.1379 21.5424 20.1157 21.5205M23.9424 20.8051V18.3174C23.9767 18.0798 23.9545 17.8375 23.8775 17.6098C23.8006 17.3821 23.6711 17.1753 23.4992 17.0058C23.3274 16.8362 23.1179 16.7087 22.8875 16.6332C22.6571 16.5577 22.412 16.5364 22.1718 16.571H20.8904V20.8051H23.9424Z" fill="#0C3058"/>
<path id="Path 208170" d="M26.3578 19.17C26.3355 19.1493 26.3181 19.124 26.3066 19.0959C26.2952 19.0679 26.29 19.0377 26.2915 19.0075V16.0223C26.2894 15.9905 26.2942 15.9587 26.3057 15.9289C26.3171 15.8991 26.3349 15.8721 26.3578 15.8497C26.4042 15.8084 26.4652 15.7865 26.5276 15.7888H26.9682C26.9995 15.7875 27.0308 15.7926 27.0601 15.8039C27.0893 15.8152 27.1159 15.8323 27.1381 15.8543C27.1603 15.8762 27.1776 15.9025 27.189 15.9314C27.2004 15.9603 27.2056 15.9913 27.2043 16.0223V19.0075C27.2058 19.0377 27.2006 19.0679 27.1891 19.0959C27.1777 19.124 27.1603 19.1493 27.138 19.17C27.0915 19.2113 27.0306 19.2332 26.9682 19.2309H26.5276C26.4652 19.2332 26.4042 19.2113 26.3578 19.17Z" fill="#0C3058"/>
<path id="Path 208171" d="M28.7298 19.17C28.7076 19.1493 28.6901 19.124 28.6787 19.0959C28.6673 19.0679 28.6621 19.0377 28.6636 19.0075V16.0223C28.6615 15.9905 28.6663 15.9587 28.6777 15.9289C28.6892 15.8991 28.7069 15.8721 28.7298 15.8497C28.7763 15.8084 28.8372 15.7865 28.8997 15.7888H29.3402C29.3716 15.7875 29.4029 15.7926 29.4321 15.8039C29.4614 15.8152 29.4879 15.8323 29.5101 15.8543C29.5323 15.8762 29.5497 15.9025 29.5611 15.9314C29.5725 15.9603 29.5777 15.9913 29.5764 16.0223V19.0075C29.5778 19.0377 29.5727 19.0679 29.5612 19.0959C29.5498 19.124 29.5323 19.1493 29.5101 19.17C29.4636 19.2113 29.4027 19.2332 29.3402 19.2309H28.8997C28.8372 19.2332 28.7763 19.2113 28.7298 19.17Z" fill="#0C3058"/>
<path id="Path 208172" d="M36.2706 18.2666V21.3533C36.2732 21.4147 36.2515 21.4747 36.21 21.5204C36.1872 21.5432 36.1598 21.561 36.1295 21.5725C36.0993 21.5839 36.0669 21.5888 36.0345 21.5869H35.6126C35.5813 21.5879 35.5501 21.5826 35.5209 21.5712C35.4918 21.5598 35.4653 21.5427 35.4431 21.5208C35.4208 21.4989 35.4034 21.4728 35.3918 21.444C35.3802 21.4152 35.3747 21.3843 35.3756 21.3533V18.3173C35.4099 18.0801 35.3879 17.8382 35.3113 17.6108C35.2347 17.3834 35.1056 17.1768 34.9343 17.0074C34.7629 16.8379 34.554 16.7102 34.3241 16.6344C34.0942 16.5587 33.8496 16.5369 33.6097 16.5709H32.863C32.794 16.9973 32.7439 17.3512 32.7128 17.6324C32.6813 17.9511 32.6694 18.2714 32.6773 18.5915L32.6988 21.3533C32.7008 21.415 32.6783 21.4749 32.6362 21.5204C32.6137 21.5433 32.5865 21.561 32.5563 21.5725C32.5262 21.584 32.4939 21.5889 32.4617 21.5869L31.0449 21.5656C30.9829 21.5681 30.9223 21.5466 30.876 21.5056C30.8536 21.4849 30.836 21.4597 30.8244 21.4317C30.8128 21.4036 30.8075 21.3734 30.8088 21.3432V21.0386C30.8078 21.0075 30.8133 20.9766 30.8248 20.9477C30.8364 20.9188 30.8538 20.8926 30.876 20.8706C30.8981 20.8488 30.9245 20.8317 30.9536 20.8204C30.9826 20.8092 31.0137 20.8039 31.0449 20.805L31.8354 20.8152V18.6303C31.8292 18.2038 31.8379 17.8435 31.8616 17.5493C31.8918 17.2187 31.9483 16.8909 32.0305 16.569H31.4761C31.4449 16.5699 31.4138 16.5645 31.3847 16.5531C31.3556 16.5416 31.3292 16.5245 31.3071 16.5026C31.285 16.4807 31.2677 16.4546 31.2561 16.4259C31.2446 16.3972 31.2391 16.3664 31.24 16.3355V16.0198C31.2381 15.9881 31.2431 15.9563 31.2547 15.9267C31.2663 15.8971 31.2842 15.8703 31.3072 15.8481C31.3532 15.8065 31.4138 15.7843 31.4761 15.7863H33.6629C35.402 15.7863 36.2713 16.6124 36.2706 18.2647" fill="#0C3058"/>
<path id="Path 208173" d="M40.592 16.0531C40.9516 16.2252 41.2335 16.5237 41.3825 16.8903C41.5656 17.3859 41.6493 17.912 41.6289 18.4392C41.6741 19.1693 41.4458 19.8903 40.9877 20.4645C40.535 20.9642 39.9547 21.3343 39.3077 21.5362L38.8784 21.6765C38.8555 21.685 38.8309 21.6884 38.8065 21.6866C38.7813 21.6866 38.7563 21.6816 38.7331 21.6718C38.7099 21.662 38.6889 21.6477 38.6715 21.6296C38.654 21.6116 38.6405 21.5903 38.6316 21.5669C38.6227 21.5435 38.6187 21.5186 38.6199 21.4937V21.0571C38.6224 20.993 38.6458 20.9315 38.6865 20.8816C38.7271 20.8318 38.783 20.7962 38.8457 20.7802L39.2461 20.6278C39.6786 20.4783 40.0595 20.2108 40.3447 19.8562C40.627 19.4219 40.7602 18.9091 40.7245 18.394C40.7392 18.03 40.6834 17.6666 40.5603 17.3232C40.4602 17.0724 40.2649 16.8703 40.0161 16.7602C39.6863 16.6309 39.3327 16.5718 38.9783 16.5866H38.6292L37.6856 16.5765C37.6231 16.5787 37.5622 16.5569 37.5157 16.5155C37.4935 16.4948 37.476 16.4695 37.4646 16.4415C37.4532 16.4134 37.448 16.3833 37.4495 16.3531V14.6112C37.4483 14.5803 37.4536 14.5494 37.465 14.5206C37.4765 14.4918 37.4939 14.4657 37.516 14.4438C37.5382 14.422 37.5647 14.4049 37.5939 14.3937C37.6231 14.3824 37.6543 14.3773 37.6856 14.3786H38.0851C38.1163 14.3775 38.1475 14.3827 38.1767 14.3939C38.2059 14.4052 38.2324 14.4223 38.2546 14.4441C38.2768 14.4659 38.2943 14.492 38.3059 14.5207C38.3175 14.5495 38.323 14.5803 38.3221 14.6112V15.7891H39.1024C39.6138 15.7661 40.124 15.8563 40.5957 16.0531" fill="#0C3058"/>
<path id="Path 208174" d="M48.8466 15.8497C48.8681 15.8729 48.8847 15.9001 48.8953 15.9298C48.9059 15.9594 48.9102 15.9909 48.9082 16.0223V18.8451C48.9194 19.3656 48.7977 19.8806 48.5544 20.3423C48.329 20.7616 47.9823 21.1048 47.5586 21.3282C47.1045 21.5606 46.5965 21.6707 46.0858 21.6476H45.327C44.911 21.6535 44.5012 21.5482 44.1407 21.3429C43.7857 21.1393 43.4949 20.8421 43.3007 20.4845C43.0888 20.0931 42.9824 19.6544 42.9918 19.2106V16.0223C42.9897 15.9905 42.9947 15.9585 43.0063 15.9287C43.0179 15.899 43.0359 15.872 43.059 15.8497C43.1052 15.8085 43.1657 15.7867 43.2279 15.7888H43.618C43.6499 15.7854 43.6821 15.7892 43.7123 15.7997C43.7424 15.8103 43.7699 15.8274 43.7925 15.8498C43.8151 15.8722 43.8324 15.8993 43.8431 15.9291C43.8538 15.959 43.8576 15.9908 43.8542 16.0223L43.8859 18.906C44.1255 18.9141 44.3643 18.8752 44.5885 18.7916C44.8128 18.7079 45.0181 18.5812 45.1926 18.4186C45.4506 18.1038 45.5833 17.7066 45.5659 17.3017V16.0223C45.5649 15.9914 45.5703 15.9605 45.5818 15.9317C45.5933 15.903 45.6106 15.8768 45.6328 15.8549C45.6549 15.833 45.6813 15.8158 45.7105 15.8045C45.7396 15.7931 45.7708 15.7878 45.802 15.7888H46.2024C46.233 15.7875 46.2634 15.7927 46.2917 15.804C46.3201 15.8153 46.3456 15.8325 46.3667 15.8543C46.4085 15.9003 46.4306 15.9605 46.4283 16.0223V17.3377C46.4377 17.6327 46.3866 17.9264 46.2782 18.2013C46.1697 18.4762 46.0062 18.7266 45.7974 18.9374C45.2981 19.3914 44.6425 19.6399 43.9643 19.6325C44.05 19.9929 44.2628 20.3113 44.5644 20.5306C44.8813 20.7502 45.2614 20.8625 45.648 20.8509H45.9868C46.2651 20.8733 46.545 20.8359 46.8073 20.7413C47.0695 20.6466 47.308 20.497 47.5063 20.3026C47.883 19.8854 48.0785 19.3382 48.0504 18.7796V16.0223C48.0494 15.9913 48.0548 15.9604 48.0664 15.9315C48.0779 15.9027 48.0954 15.8765 48.1176 15.8546C48.1398 15.8326 48.1664 15.8155 48.1956 15.8042C48.2249 15.7929 48.2561 15.7876 48.2875 15.7888H48.6767C48.7085 15.7867 48.7403 15.7911 48.7703 15.8016C48.8003 15.812 48.8278 15.8284 48.8512 15.8497" fill="#0C3058"/>
<path id="Path 208175" d="M54.2154 16.0889C54.5515 16.2957 54.8206 16.5932 54.991 16.9465C55.187 17.3589 55.2829 17.8109 55.271 18.2665V21.3533C55.2729 21.4151 55.2505 21.4753 55.2085 21.5213C55.1877 21.5432 55.1623 21.5605 55.1341 21.5718C55.1059 21.5831 55.0756 21.5882 55.0452 21.5868H52.3992C52.3678 21.5881 52.3365 21.5829 52.3073 21.5717C52.278 21.5604 52.2514 21.5432 52.2293 21.5213C52.2071 21.4993 52.1897 21.4731 52.1783 21.4441C52.1669 21.4152 52.1617 21.3843 52.163 21.3533V21.0385C52.162 21.0075 52.1674 20.9767 52.1789 20.9479C52.1904 20.9191 52.2077 20.893 52.2299 20.8711C52.252 20.8492 52.2785 20.832 52.3076 20.8206C52.3367 20.8093 52.3679 20.8039 52.3992 20.8049H54.3806V18.3274C54.3867 18.0136 54.3253 17.7021 54.2005 17.4136C54.0949 17.1674 53.9223 16.9549 53.7021 16.7997C53.4919 16.6543 53.2409 16.5778 52.9844 16.5809H51.8858L51.0944 21.3431C51.0893 21.4086 51.06 21.4701 51.0122 21.5157C50.9899 21.5388 50.9629 21.5571 50.933 21.5693C50.9031 21.5815 50.871 21.5875 50.8386 21.5868H50.4177C50.3872 21.5887 50.3568 21.5833 50.3289 21.5709C50.3011 21.5585 50.2768 21.5396 50.2581 21.5157C50.2392 21.4914 50.2254 21.4636 50.2175 21.434C50.2097 21.4043 50.2079 21.3734 50.2124 21.3431L51.0337 16.5911H50.5092C50.478 16.5922 50.4469 16.587 50.4178 16.5757C50.3887 16.5644 50.3623 16.5474 50.3402 16.5256C50.318 16.5036 50.3006 16.4773 50.2891 16.4484C50.2775 16.4195 50.2721 16.3886 50.273 16.3576V16.0225C50.272 15.9915 50.2774 15.9607 50.2889 15.9319C50.3004 15.9031 50.3177 15.877 50.3399 15.8551C50.362 15.8332 50.3885 15.816 50.4176 15.8046C50.4467 15.7933 50.4779 15.7879 50.5092 15.7889H53.0861C53.4836 15.7815 53.8751 15.8855 54.2154 16.0889Z" fill="#0C3058"/>
<path id="Path 208176" d="M60.5816 16.0889C60.9177 16.2957 61.1868 16.5932 61.3572 16.9465C61.5532 17.3589 61.6491 17.8109 61.6372 18.2665V21.3533C61.6391 21.4151 61.6167 21.4753 61.5747 21.5213C61.5539 21.5432 61.5285 21.5605 61.5003 21.5718C61.4721 21.5831 61.4418 21.5882 61.4114 21.5868H58.7654C58.734 21.5881 58.7027 21.5829 58.6735 21.5717C58.6442 21.5604 58.6177 21.5432 58.5955 21.5213C58.5733 21.4993 58.5559 21.4731 58.5445 21.4441C58.5331 21.4152 58.5279 21.3843 58.5292 21.3533V21.0385C58.5282 21.0075 58.5336 20.9767 58.5451 20.9479C58.5566 20.9191 58.5739 20.893 58.5961 20.8711C58.6182 20.8492 58.6447 20.832 58.6738 20.8206C58.7029 20.8093 58.7341 20.8039 58.7654 20.8049H60.7468V18.3274C60.7529 18.0136 60.6915 17.7021 60.5667 17.4136C60.4611 17.1674 60.2886 16.9549 60.0683 16.7997C59.8581 16.6543 59.6071 16.5778 59.3506 16.5809H58.252L57.4606 21.3431C57.4555 21.4086 57.4262 21.4701 57.3784 21.5157C57.3561 21.5388 57.3291 21.5571 57.2992 21.5693C57.2693 21.5815 57.2372 21.5875 57.2048 21.5868H56.7839C56.7535 21.5887 56.723 21.5833 56.6952 21.5709C56.6673 21.5585 56.643 21.5396 56.6243 21.5157C56.6054 21.4914 56.5916 21.4636 56.5837 21.434C56.5759 21.4043 56.5741 21.3734 56.5786 21.3431L57.3999 16.5911H56.8754C56.8442 16.5922 56.8131 16.587 56.784 16.5757C56.755 16.5644 56.7286 16.5474 56.7064 16.5256C56.6843 16.5036 56.6668 16.4773 56.6553 16.4484C56.6437 16.4195 56.6383 16.3886 56.6392 16.3576V16.0225C56.6382 15.9915 56.6436 15.9607 56.6551 15.9319C56.6666 15.9031 56.6839 15.877 56.7061 15.8551C56.7282 15.8332 56.7547 15.816 56.7838 15.8046C56.8129 15.7933 56.8441 15.7879 56.8754 15.7889H59.4523C59.8498 15.7815 60.2414 15.8855 60.5816 16.0889Z" fill="#0C3058"/>
<path id="Path 208177" d="M67.1478 21.5215C67.1256 21.4995 67.1081 21.4733 67.0966 21.4444C67.085 21.4155 67.0796 21.3845 67.0806 21.3535V18.3175C67.1147 18.0804 67.0926 17.8387 67.016 17.6115C66.9393 17.3843 66.8103 17.1779 66.6391 17.0086C66.4679 16.8392 66.2592 16.7116 66.0295 16.6358C65.7998 16.5601 65.5554 16.5382 65.3157 16.5719H63.4163C63.3848 16.5728 63.3535 16.5673 63.3243 16.5557C63.2951 16.5441 63.2686 16.5267 63.2464 16.5046C63.2243 16.483 63.207 16.457 63.1956 16.4284C63.1841 16.3998 63.1789 16.3691 63.1802 16.3384V16.0227C63.1781 15.9909 63.1829 15.9591 63.1944 15.9293C63.2058 15.8995 63.2236 15.8725 63.2464 15.8501C63.2931 15.8091 63.3539 15.7873 63.4163 15.7892H65.3661C67.1126 15.7892 67.9853 16.6218 67.9841 18.287V21.3535C67.9854 21.3845 67.9802 21.4155 67.9688 21.4444C67.9574 21.4733 67.94 21.4996 67.9178 21.5215C67.8956 21.5435 67.8691 21.5606 67.8398 21.5719C67.8106 21.5832 67.7793 21.5883 67.7479 21.587H67.3167C67.2855 21.5881 67.2544 21.5829 67.2254 21.5716C67.1963 21.5603 67.1699 21.5433 67.1478 21.5215ZM63.2464 21.5215C63.2243 21.4995 63.2071 21.4732 63.1957 21.4443C63.1843 21.4154 63.179 21.3845 63.1802 21.3535V17.9381C63.178 17.9064 63.1829 17.8747 63.1943 17.8451C63.2057 17.8154 63.2235 17.7886 63.2464 17.7664C63.2928 17.7248 63.3537 17.7026 63.4163 17.7046H63.8475C63.8779 17.7035 63.9081 17.7089 63.9362 17.7201C63.9644 17.7314 63.9898 17.7485 64.0108 17.7701C64.0528 17.816 64.0752 17.8762 64.0734 17.9381V21.3535C64.0754 21.4154 64.053 21.4757 64.0108 21.5215C63.9901 21.5435 63.9647 21.5607 63.9365 21.572C63.9083 21.5833 63.8779 21.5885 63.8475 21.587H63.4163C63.385 21.5882 63.3537 21.583 63.3245 21.5717C63.2953 21.5604 63.2687 21.5433 63.2464 21.5215Z" fill="#0C3058"/>
<path id="Path 208178" d="M76.3408 15.8543C76.3826 15.9003 76.4047 15.9605 76.4024 16.0223V18.8248C76.4052 19.412 76.196 19.9809 75.8125 20.4291C75.3954 20.918 74.8393 21.2717 74.2165 21.4445L71.9877 22.1451C71.961 22.1525 71.9333 22.1559 71.9056 22.1553C71.8531 22.1561 71.802 22.138 71.7619 22.1045C71.742 22.0887 71.7261 22.0685 71.7154 22.0456C71.7047 22.0227 71.6995 21.9977 71.7003 21.9725V21.6577C71.7003 21.5017 71.7553 21.4076 71.8645 21.3734L73.2104 20.9266L71.8748 16.1949C71.8525 16.1286 71.8354 16.0607 71.8235 15.9919C71.8236 15.9652 71.8292 15.9389 71.84 15.9144C71.8507 15.89 71.8664 15.868 71.886 15.8497C71.9043 15.8304 71.9264 15.815 71.951 15.8045C71.9755 15.794 72.002 15.7887 72.0288 15.7888H72.5011C72.5562 15.7865 72.6105 15.8028 72.6551 15.8349C72.6928 15.8614 72.7217 15.8983 72.7381 15.9411L74.0513 20.6488C74.5126 20.5231 74.9144 20.2407 75.1863 19.8513C75.4142 19.4545 75.526 19.0029 75.5092 18.5469V16.0223C75.5082 15.9914 75.5135 15.9606 75.525 15.9318C75.5365 15.903 75.5539 15.8768 75.576 15.8549C75.5982 15.833 75.6246 15.8158 75.6537 15.8045C75.6829 15.7931 75.714 15.7878 75.7453 15.7888H76.1765C76.207 15.7876 76.2375 15.7928 76.2658 15.8041C76.2941 15.8154 76.3197 15.8325 76.3408 15.8543Z" fill="#0C3058"/>
<path id="Path 208179" d="M82.3218 15.8542C82.3437 15.8764 82.3609 15.9027 82.3722 15.9315C82.3836 15.9604 82.389 15.9913 82.388 16.0222V16.337C82.3891 16.368 82.3837 16.3988 82.3722 16.4276C82.3607 16.4564 82.3433 16.4825 82.3212 16.5044C82.299 16.5263 82.2726 16.5435 82.2435 16.5549C82.2144 16.5662 82.1832 16.5716 82.1519 16.5705H81.5256C81.4144 16.7104 81.3371 16.8737 81.2998 17.0478C81.2419 17.2872 81.2143 17.5327 81.2176 17.7789V21.3632C81.2189 21.3933 81.2137 21.4234 81.2022 21.4515C81.1908 21.4795 81.1735 21.5048 81.1514 21.5256C81.1047 21.5666 81.0439 21.5884 80.9815 21.5865H80.5512C80.521 21.5879 80.4907 21.5832 80.4624 21.5727C80.434 21.5622 80.408 21.5462 80.386 21.5256C80.3651 21.5041 80.3489 21.4786 80.3383 21.4507C80.3277 21.4227 80.323 21.393 80.3244 21.3632V17.7179C80.3209 17.4827 80.3434 17.2477 80.3916 17.0173C80.4193 16.8565 80.4831 16.7038 80.5783 16.5705H77.7578C77.7265 16.5715 77.6954 16.5661 77.6663 16.5546C77.6373 16.5432 77.6109 16.526 77.5888 16.5041C77.5665 16.4824 77.549 16.4563 77.5375 16.4275C77.5259 16.3988 77.5205 16.3679 77.5216 16.337V16.0222C77.5206 15.9913 77.526 15.9605 77.5375 15.9317C77.549 15.9029 77.5663 15.8767 77.5885 15.8548C77.6106 15.8329 77.6371 15.8158 77.6662 15.8044C77.6953 15.793 77.7265 15.7877 77.7578 15.7887H82.1519C82.1832 15.7877 82.2144 15.793 82.2436 15.8043C82.2728 15.8156 82.2994 15.8326 82.3218 15.8542Z" fill="#0C3058"/>
<path id="Path 208180" d="M83.6458 19.17C83.6236 19.1493 83.6062 19.124 83.5947 19.0959C83.5833 19.0679 83.5781 19.0377 83.5796 19.0075V16.0223C83.5775 15.9905 83.5823 15.9587 83.5937 15.9289C83.6052 15.8991 83.6229 15.8721 83.6458 15.8497C83.6923 15.8084 83.7532 15.7865 83.8157 15.7888H84.2562C84.2876 15.7875 84.3189 15.7926 84.3481 15.8039C84.3774 15.8152 84.404 15.8323 84.4262 15.8543C84.4483 15.8762 84.4657 15.9025 84.4771 15.9314C84.4885 15.9603 84.4937 15.9913 84.4924 16.0223V19.0075C84.4938 19.0377 84.4887 19.0679 84.4772 19.0959C84.4658 19.124 84.4484 19.1493 84.4261 19.17C84.3796 19.2113 84.3187 19.2332 84.2562 19.2309H83.8157C83.7532 19.2332 83.6923 19.2113 83.6458 19.17Z" fill="#0C3058"/>
<path id="Path 208181" d="M89.7904 16.0889C90.1265 16.2957 90.3956 16.5932 90.566 16.9465C90.762 17.3589 90.8579 17.8109 90.846 18.2665V21.3533C90.8479 21.4151 90.8255 21.4753 90.7835 21.5213C90.7627 21.5432 90.7373 21.5605 90.7091 21.5718C90.6809 21.5831 90.6506 21.5882 90.6202 21.5868H87.9723C87.941 21.5881 87.9097 21.5829 87.8804 21.5717C87.8512 21.5604 87.8246 21.5432 87.8024 21.5213C87.7802 21.4993 87.7629 21.4731 87.7515 21.4441C87.7401 21.4152 87.7349 21.3843 87.7362 21.3533V21.0385C87.7351 21.0075 87.7405 20.9767 87.752 20.9479C87.7635 20.9191 87.7809 20.893 87.803 20.8711C87.8252 20.8492 87.8516 20.832 87.8807 20.8206C87.9099 20.8093 87.941 20.8039 87.9723 20.8049H89.9538V18.3274C89.9599 18.0136 89.8985 17.7021 89.7736 17.4136C89.668 17.1674 89.4955 16.9549 89.2752 16.7997C89.065 16.6543 88.814 16.5778 88.5575 16.5809H87.4608L86.6656 21.3431C86.6605 21.4086 86.6313 21.4701 86.5835 21.5157C86.5611 21.5388 86.5342 21.5571 86.5043 21.5693C86.4744 21.5815 86.4422 21.5875 86.4099 21.5868H85.989C85.9585 21.5887 85.9281 21.5833 85.9002 21.5709C85.8724 21.5585 85.8481 21.5396 85.8294 21.5157C85.8105 21.4914 85.7967 21.4636 85.7888 21.434C85.781 21.4043 85.7792 21.3734 85.7836 21.3431L86.605 16.5911H86.0804C86.0493 16.5922 86.0182 16.587 85.9891 16.5757C85.96 16.5644 85.9336 16.5474 85.9115 16.5256C85.8893 16.5036 85.8719 16.4773 85.8604 16.4484C85.8488 16.4195 85.8434 16.3886 85.8443 16.3576V16.0225C85.8433 15.9915 85.8487 15.9607 85.8602 15.9319C85.8717 15.9031 85.889 15.877 85.9112 15.8551C85.9333 15.8332 85.9597 15.816 85.9889 15.8046C86.018 15.7933 86.0492 15.7879 86.0804 15.7889H88.6574C89.0549 15.7815 89.4464 15.8855 89.7867 16.0889" fill="#0C3058"/>
<path id="Path 208182" d="M96.3566 21.5212C96.3344 21.4992 96.317 21.4729 96.3054 21.444C96.2939 21.4152 96.2884 21.3842 96.2894 21.3532V18.3172C96.3236 18.0801 96.3015 17.8384 96.2248 17.6112C96.1482 17.384 96.0192 17.1776 95.848 17.0083C95.6767 16.8389 95.468 16.7113 95.2383 16.6355C95.0086 16.5597 94.7642 16.5379 94.5245 16.5716H92.6252C92.5934 16.5732 92.5617 16.5684 92.532 16.5572C92.5023 16.5461 92.4752 16.529 92.4525 16.507C92.4304 16.4854 92.413 16.4595 92.4016 16.4309C92.3902 16.4022 92.385 16.3716 92.3862 16.3408V16.0252C92.3841 15.9934 92.389 15.9615 92.4004 15.9317C92.4118 15.9019 92.4296 15.8749 92.4525 15.8525C92.4992 15.8115 92.56 15.7897 92.6224 15.7916H94.5721C96.3187 15.7916 97.1914 16.6242 97.1901 18.2895V21.3532C97.1914 21.3842 97.1862 21.4151 97.1748 21.444C97.1634 21.473 97.1461 21.4992 97.1239 21.5212C97.1017 21.5431 97.0751 21.5603 97.0459 21.5716C97.0166 21.5828 96.9853 21.588 96.954 21.5867H96.5228C96.4916 21.5878 96.4605 21.5826 96.4314 21.5713C96.4024 21.56 96.376 21.5429 96.3538 21.5212M92.4525 21.5212C92.4304 21.4991 92.4131 21.4729 92.4017 21.444C92.3903 21.4151 92.385 21.3842 92.3862 21.3532V17.9378C92.3841 17.9061 92.3889 17.8744 92.4004 17.8447C92.4118 17.8151 92.4296 17.7883 92.4525 17.7661C92.4989 17.7245 92.5598 17.7023 92.6224 17.7042H93.0536C93.0839 17.7032 93.1141 17.7085 93.1423 17.7198C93.1704 17.7311 93.1958 17.7481 93.2169 17.7698C93.2589 17.8157 93.2813 17.8759 93.2794 17.9378V21.3532C93.2814 21.4151 93.259 21.4753 93.2169 21.5212C93.1961 21.5431 93.1707 21.5604 93.1425 21.5717C93.1143 21.583 93.084 21.5881 93.0536 21.5867H92.6224C92.591 21.5879 92.5598 21.5827 92.5305 21.5714C92.5013 21.5601 92.4748 21.543 92.4525 21.5212Z" fill="#0C3058"/>
<path id="Path 208183" d="M101.244 19.17C101.221 19.1493 101.204 19.124 101.192 19.0959C101.181 19.0679 101.176 19.0377 101.177 19.0075V16.0223C101.175 15.9905 101.18 15.9587 101.191 15.9289C101.203 15.8991 101.221 15.8721 101.244 15.8497C101.29 15.8084 101.351 15.7865 101.413 15.7888H101.854C101.885 15.7875 101.917 15.7926 101.946 15.8039C101.975 15.8152 102.002 15.8323 102.024 15.8543C102.046 15.8762 102.063 15.9025 102.075 15.9314C102.086 15.9603 102.091 15.9913 102.09 16.0223V19.0075C102.091 19.0377 102.086 19.0679 102.075 19.0959C102.063 19.124 102.046 19.1493 102.024 19.17C101.977 19.2113 101.916 19.2332 101.854 19.2309H101.412C101.35 19.2332 101.289 19.2113 101.243 19.17" fill="#0C3058"/>
<path id="Path 208184" d="M106.777 21.521C106.754 21.499 106.737 21.4728 106.726 21.4439C106.714 21.415 106.709 21.384 106.71 21.353V18.317C106.744 18.0799 106.722 17.8381 106.646 17.6108C106.569 17.3836 106.44 17.1771 106.269 17.0077C106.097 16.8384 105.888 16.7108 105.659 16.6351C105.429 16.5593 105.184 16.5376 104.944 16.5715H103.62C103.589 16.5721 103.558 16.5665 103.529 16.555C103.5 16.5435 103.474 16.5263 103.452 16.5045C103.43 16.4827 103.412 16.4567 103.401 16.4281C103.389 16.3995 103.383 16.3688 103.384 16.338V16.0223C103.383 15.9912 103.388 15.9603 103.4 15.9314C103.412 15.9025 103.429 15.8763 103.451 15.8543C103.473 15.8324 103.5 15.8153 103.529 15.8041C103.558 15.7928 103.589 15.7876 103.62 15.7887H104.996C106.741 15.7887 107.612 16.6149 107.609 18.2672V21.353C107.61 21.384 107.605 21.4148 107.594 21.4437C107.583 21.4726 107.565 21.4988 107.543 21.5207C107.521 21.5427 107.495 21.5598 107.466 21.5712C107.436 21.5825 107.405 21.5878 107.374 21.5866H106.943C106.911 21.5878 106.88 21.5826 106.851 21.5713C106.822 21.56 106.795 21.5429 106.773 21.521" fill="#0C3058"/>
<path id="Path 208185" d="M112.469 21.5214C112.422 21.565 112.359 21.5885 112.295 21.587H111.853C111.716 21.587 111.637 21.5094 111.617 21.3534L111.381 20.1654C111.155 20.5229 110.858 20.8308 110.507 21.07C110.285 21.2221 110.048 21.3529 109.8 21.4605C109.575 21.5531 109.341 21.6227 109.102 21.6682L109.029 21.6784C108.913 21.6784 108.855 21.6239 108.855 21.5159V21.0396C108.855 20.9242 108.927 20.8393 109.07 20.7848L109.476 20.6482C109.713 20.5698 109.939 20.4622 110.149 20.3279C110.376 20.1803 110.58 20.0009 110.755 19.7953C110.928 19.6065 111.07 19.3922 111.176 19.1602L110.989 18.2371C110.928 17.9144 110.841 17.597 110.728 17.2882C110.654 17.0807 110.525 16.8965 110.354 16.7547C110.177 16.6256 109.96 16.5604 109.739 16.57H109.359C109.328 16.5708 109.297 16.5652 109.268 16.5537C109.238 16.5421 109.212 16.5247 109.19 16.5027C109.167 16.4811 109.15 16.4551 109.139 16.4265C109.127 16.3979 109.122 16.3672 109.123 16.3365V16.0005C109.122 15.9696 109.127 15.9387 109.139 15.9099C109.15 15.8811 109.168 15.8549 109.19 15.8331C109.212 15.8112 109.239 15.7942 109.268 15.7829C109.297 15.7717 109.328 15.7666 109.359 15.7679H109.739C110.117 15.7519 110.491 15.8436 110.817 16.0319C111.111 16.223 111.343 16.4943 111.485 16.8128C111.679 17.2522 111.82 17.7126 111.906 18.1845L112.531 21.3516C112.535 21.3824 112.532 21.4138 112.522 21.4431C112.511 21.4723 112.494 21.4986 112.47 21.5196" fill="#0C3058"/>
<path id="Path 208186" d="M118.373 21.3837C118.373 21.4101 118.368 21.4363 118.358 21.4606C118.347 21.4849 118.332 21.5068 118.312 21.5249C118.294 21.5444 118.271 21.5599 118.246 21.5705C118.222 21.5812 118.195 21.5867 118.168 21.5867H117.706C117.65 21.5899 117.594 21.5757 117.547 21.5461C117.502 21.5115 117.462 21.4705 117.428 21.4243L115.067 18.1547C114.796 18.3426 114.587 18.6056 114.466 18.9107C114.358 19.2158 114.304 19.5373 114.308 19.8606V21.3532C114.31 21.4148 114.288 21.4748 114.246 21.5203C114.223 21.543 114.196 21.5607 114.166 21.5722C114.136 21.5837 114.104 21.5886 114.072 21.5867H113.699C113.667 21.5877 113.636 21.5823 113.607 21.5709C113.578 21.5594 113.551 21.5422 113.529 21.5203C113.507 21.4982 113.49 21.4721 113.479 21.4434C113.467 21.4147 113.462 21.384 113.463 21.3532V19.82C113.453 19.3722 113.533 18.9269 113.699 18.5101C113.894 18.0943 114.208 17.7447 114.603 17.5049L113.648 16.1849C113.606 16.1283 113.581 16.0616 113.576 15.992C113.576 15.9653 113.581 15.939 113.592 15.9145C113.603 15.8901 113.619 15.8681 113.638 15.8498C113.656 15.8303 113.679 15.8148 113.703 15.8042C113.728 15.7935 113.754 15.788 113.781 15.788H114.233C114.29 15.7846 114.346 15.8009 114.392 15.8341C114.436 15.8719 114.476 15.9146 114.51 15.9615L116.667 18.9366C116.88 18.833 117.068 18.6839 117.216 18.5C117.32 18.3637 117.392 18.2059 117.426 18.0384C117.457 17.8372 117.47 17.6337 117.466 17.4301V16.0178C117.465 15.9869 117.47 15.9561 117.482 15.9274C117.494 15.8987 117.511 15.8726 117.533 15.8507C117.555 15.8288 117.581 15.8117 117.611 15.8002C117.64 15.7888 117.671 15.7834 117.702 15.7843H118.092C118.123 15.7835 118.155 15.789 118.184 15.8005C118.213 15.8119 118.24 15.829 118.262 15.8507C118.284 15.8726 118.301 15.8987 118.313 15.9275C118.324 15.9562 118.329 15.987 118.328 16.0178V17.48C118.34 17.8837 118.26 18.2848 118.092 18.6532C117.866 19.0452 117.531 19.3654 117.128 19.5763L118.298 21.1907C118.34 21.2473 118.364 21.3141 118.369 21.3837" fill="#0C3058"/>
<path id="Path 208187" d="M123.486 16.0889C123.822 16.2957 124.091 16.5933 124.261 16.9465C124.457 17.3589 124.553 17.8109 124.541 18.2665V21.3533C124.543 21.4151 124.521 21.4753 124.479 21.5213C124.458 21.5432 124.433 21.5605 124.404 21.5718C124.376 21.5831 124.346 21.5882 124.316 21.5868H121.666C121.634 21.5881 121.603 21.5829 121.574 21.5717C121.545 21.5604 121.518 21.5432 121.496 21.5213C121.474 21.4993 121.456 21.4731 121.445 21.4441C121.434 21.4152 121.428 21.3843 121.43 21.3533V21.0385C121.429 21.0075 121.434 20.9767 121.445 20.9479C121.457 20.9191 121.474 20.893 121.496 20.8711C121.519 20.8492 121.545 20.832 121.574 20.8206C121.603 20.8093 121.634 20.8039 121.666 20.8049H123.647V18.3274C123.653 18.0136 123.592 17.7021 123.467 17.4136C123.361 17.1674 123.189 16.9549 122.969 16.7997C122.758 16.6543 122.507 16.5778 122.251 16.5809H121.152L120.361 21.3431C120.356 21.4086 120.327 21.4701 120.279 21.5157C120.256 21.5388 120.229 21.5571 120.2 21.5693C120.17 21.5815 120.138 21.5875 120.105 21.5868H119.684C119.654 21.5887 119.623 21.5833 119.596 21.5709C119.568 21.5585 119.543 21.5396 119.525 21.5157C119.506 21.4914 119.492 21.4636 119.484 21.434C119.476 21.4043 119.475 21.3734 119.479 21.3431L120.3 16.5911H119.776C119.745 16.5922 119.713 16.587 119.684 16.5757C119.655 16.5644 119.629 16.5474 119.607 16.5256C119.585 16.5036 119.567 16.4773 119.556 16.4484C119.544 16.4195 119.539 16.3886 119.54 16.3576V16.0225C119.539 15.9915 119.544 15.9607 119.555 15.9319C119.567 15.9031 119.584 15.877 119.606 15.8551C119.629 15.8332 119.655 15.816 119.684 15.8046C119.713 15.7933 119.744 15.7879 119.776 15.7889H122.353C122.75 15.7815 123.142 15.8855 123.482 16.0889" fill="#0C3058"/>
<path id="Path 208188" d="M130.159 29.7993C129.972 29.526 129.72 29.3022 129.425 29.1475C129.13 28.9929 128.801 28.9121 128.467 28.9122H125.306C125.072 28.9119 124.844 28.9825 124.652 29.1146C124.461 29.2467 124.315 29.4338 124.234 29.6507L120.385 40.1193C120.367 40.1703 120.333 40.2143 120.288 40.2455C120.244 40.2767 120.19 40.2934 120.135 40.2934C120.081 40.2934 120.027 40.2767 119.983 40.2455C119.938 40.2143 119.904 40.1703 119.886 40.1193L116.318 30.0107L114.927 26.5233C114.823 26.2615 114.642 26.0368 114.407 25.8786C114.171 25.7203 113.894 25.6359 113.609 25.6362H110.279C109.95 25.636 109.627 25.717 109.337 25.8718C109.048 26.0266 108.803 26.2503 108.623 26.5227C108.444 26.7951 108.336 27.1075 108.309 27.4316C108.283 27.7557 108.338 28.0813 108.471 28.3787L109.758 31.2578L117.14 50.5233C117.182 50.6347 117.258 50.7306 117.357 50.7982C117.456 50.8658 117.574 50.9019 117.694 50.9018H121.292C121.685 50.9031 122.07 50.787 122.395 50.5688C122.721 50.3506 122.972 50.0404 123.116 49.6787L130.367 31.6787C130.49 31.3724 130.535 31.041 130.499 30.7134C130.463 30.3858 130.346 30.072 130.159 29.7993Z" fill="#0068F5"/>
<path id="Path 208189" d="M129.336 8.91662H124.847C124.715 8.91662 124.588 8.86482 124.495 8.77257C124.401 8.68033 124.349 8.55519 124.349 8.42462V3.9837C124.349 3.85313 124.401 3.72799 124.495 3.63575C124.588 3.54351 124.715 3.4917 124.847 3.4917H129.336C129.468 3.4917 129.595 3.54353 129.688 3.6358C129.781 3.72807 129.834 3.85321 129.834 3.9837V8.42462C129.834 8.55511 129.781 8.68025 129.688 8.77252C129.595 8.86479 129.468 8.91662 129.336 8.91662Z" fill="#0068F5"/>
<path id="Path 208190" d="M135.881 22.8349H128.899C128.682 22.8349 128.474 22.7498 128.321 22.5984C128.168 22.4469 128.082 22.2415 128.082 22.0272V15.1226C128.082 14.9084 128.168 14.703 128.321 14.5515C128.474 14.4 128.682 14.3149 128.899 14.3149H135.881C136.098 14.3149 136.305 14.4 136.458 14.5515C136.612 14.703 136.698 14.9084 136.698 15.1226V22.0272C136.698 22.2415 136.612 22.4469 136.458 22.5984C136.305 22.7498 136.098 22.8349 135.881 22.8349Z" fill="#0068F5"/>
<path id="Path 208191" d="M138.569 12.7512H132.745C132.613 12.7512 132.486 12.6994 132.393 12.6071C132.299 12.5148 132.247 12.3897 132.247 12.2592V6.49829C132.247 6.43361 132.26 6.36953 132.285 6.30973C132.31 6.24993 132.346 6.19559 132.392 6.1498C132.439 6.10402 132.494 6.06769 132.554 6.04291C132.614 6.01813 132.679 6.00537 132.745 6.00537H138.569C138.635 6.00537 138.7 6.01813 138.76 6.04291C138.82 6.06769 138.875 6.10402 138.922 6.1498C138.968 6.19559 139.004 6.24993 139.029 6.30973C139.054 6.36953 139.067 6.43361 139.067 6.49829V12.2611C139.067 12.3916 139.015 12.5167 138.921 12.609C138.828 12.7012 138.701 12.7531 138.569 12.7531" fill="#0068F5"/>
<path id="Path 208192" d="M8.4839 23.8105H2.12043C1.77 23.8108 1.43399 23.9486 1.18619 24.1937C0.938397 24.4387 0.799078 24.771 0.798831 25.1176V49.2764C0.798463 49.4483 0.832369 49.6186 0.898609 49.7776C0.964849 49.9365 1.06212 50.081 1.18487 50.2028C1.30762 50.3245 1.45343 50.4211 1.61396 50.4871C1.77449 50.553 1.9466 50.587 2.12043 50.5872H8.1927C12.5868 50.5872 16.1512 49.3216 18.7879 46.8265C20.1173 45.5345 21.1583 43.9813 21.8439 42.2672C22.5295 40.553 22.8445 38.7158 22.7686 36.8739C22.7686 28.2062 17.9628 23.8105 8.48856 23.8105M8.2291 46.9235H5.1855C5.0826 46.9232 4.98398 46.8827 4.91122 46.8107C4.83846 46.7388 4.79748 46.6412 4.79723 46.5395V27.861C4.79723 27.7592 4.83814 27.6615 4.91095 27.5895C4.98377 27.5175 5.08252 27.477 5.1855 27.477H8.4111C15.286 27.477 18.6274 30.5749 18.6274 36.9487C18.6274 40.1324 17.7127 42.6164 15.9086 44.3333C14.1044 46.0502 11.5154 46.9272 8.2291 46.9272" fill="#0068F5"/>
<path id="Path 208193" d="M31.9558 30.7706C29.7603 30.7357 27.5963 31.2891 25.6931 32.3721C25.5258 32.4714 25.3874 32.6118 25.2914 32.7798C25.1954 32.9477 25.145 33.1374 25.1452 33.3303V34.7149C25.1434 34.913 25.1967 35.1077 25.2992 35.2778C25.4018 35.448 25.5496 35.5869 25.7267 35.6795C25.9062 35.7744 26.1084 35.8193 26.3117 35.8096C26.515 35.7998 26.7118 35.7357 26.8812 35.6241C28.3059 34.6776 29.9847 34.1751 31.701 34.1814C33.857 34.1814 34.9266 35.3546 35.061 37.8737C35.0601 37.9168 35.0435 37.9582 35.0141 37.9901C34.9848 38.022 34.9447 38.0423 34.9014 38.0472L29.8819 38.7432C25.527 39.3432 23.3178 41.5226 23.3178 45.2223C23.2868 46.0053 23.4245 46.7859 23.7219 47.5123C24.0193 48.2386 24.4694 48.8941 25.0426 49.4352C26.3389 50.545 28.0206 51.1133 29.7326 51.0201C30.7514 51.0536 31.7642 50.8537 32.6919 50.4359C33.6197 50.0181 34.4372 49.3938 35.0806 48.6118V49.4841C35.0818 49.7763 35.1997 50.0562 35.4086 50.2628C35.6175 50.4694 35.9005 50.586 36.1959 50.5872H37.888C38.1834 50.586 38.4664 50.4694 38.6753 50.2628C38.8842 50.0562 39.0021 49.7763 39.0034 49.4841V38.1183C39.0034 33.2426 36.6327 30.7706 31.9558 30.7706ZM35.0806 41.5226V42.6303C35.1351 43.9525 34.659 45.2425 33.7562 46.2192C33.3362 46.6765 32.8208 47.038 32.2457 47.2788C31.6705 47.5197 31.0493 47.634 30.4251 47.614C29.5957 47.662 28.7786 47.3982 28.1375 46.8755C27.8689 46.6451 27.6559 46.3581 27.5142 46.0356C27.3726 45.7131 27.3058 45.3632 27.319 45.0118C27.2691 44.6025 27.3211 44.1874 27.4706 43.8025C27.6201 43.4177 27.8625 43.0748 28.1767 42.8038C29.0699 42.2761 30.072 41.9545 31.1083 41.8632L34.8734 41.3509H34.8995C34.9472 41.3523 34.9926 41.3717 35.0263 41.4052C35.06 41.4387 35.0794 41.4837 35.0806 41.5309" fill="#0068F5"/>
<path id="Path 208194" d="M51.3017 31.2026H47.7858C47.7691 31.2026 47.7526 31.1994 47.7372 31.1931C47.7218 31.1868 47.7078 31.1775 47.696 31.1659C47.6842 31.1542 47.6749 31.1404 47.6685 31.1251C47.6621 31.1099 47.6589 31.0936 47.6589 31.0771V27.0082C47.6586 26.8428 47.6189 26.6798 47.543 26.5324C47.4671 26.385 47.3571 26.2574 47.2221 26.1599C47.0876 26.0614 46.9312 25.9964 46.7659 25.9703C46.6007 25.9443 46.4316 25.958 46.2729 26.0103L44.4706 26.5863C44.2563 26.6534 44.0691 26.7864 43.9364 26.9658C43.8036 27.1452 43.7322 27.3618 43.7323 27.5842V31.0771C43.7323 31.0936 43.729 31.1099 43.7227 31.1251C43.7163 31.1404 43.7069 31.1542 43.6951 31.1659C43.6834 31.1775 43.6694 31.1868 43.654 31.1931C43.6386 31.1994 43.6221 31.2026 43.6054 31.2026H41.5857C41.3045 31.2029 41.035 31.3134 40.8362 31.51C40.6374 31.7066 40.5256 31.9732 40.5254 32.2513V33.6017C40.5256 33.8797 40.6375 34.1461 40.8363 34.3426C41.0351 34.5391 41.3046 34.6494 41.5857 34.6494H43.6063C43.6398 34.6497 43.6719 34.663 43.6955 34.6865C43.7191 34.71 43.7323 34.7418 43.7323 34.7749V45.1134C43.7323 48.9534 45.5897 50.9842 49.1027 50.9842C50.0024 51.009 50.898 50.8552 51.7366 50.5319C51.9244 50.4501 52.0836 50.3152 52.1942 50.1443C52.3047 49.9733 52.3618 49.7739 52.3582 49.5709V48.3949C52.3583 48.2248 52.3167 48.0572 52.2371 47.9065C52.1574 47.7557 52.0421 47.6262 51.9009 47.5291C51.7665 47.4334 51.6103 47.3721 51.4461 47.3505C51.282 47.329 51.115 47.3478 50.9601 47.4054C50.6328 47.5194 50.2878 47.5759 49.9409 47.5725C49.6209 47.6069 49.2973 47.569 48.9943 47.4617C48.6913 47.3544 48.4169 47.1805 48.1918 46.9531C47.7661 46.2412 47.5783 45.4146 47.6551 44.5909V34.7749C47.6551 34.7585 47.6584 34.7421 47.6648 34.7269C47.6712 34.7117 47.6805 34.6978 47.6923 34.6862C47.7041 34.6745 47.7181 34.6653 47.7335 34.659C47.7489 34.6527 47.7654 34.6494 47.7821 34.6494H51.3017C51.5826 34.6492 51.852 34.5387 52.0508 34.3423C52.2495 34.1459 52.3614 33.8796 52.3619 33.6017V32.2513C52.3614 31.9733 52.2496 31.7069 52.0508 31.5103C51.8521 31.3138 51.5827 31.2031 51.3017 31.2026Z" fill="#0068F5"/>
<path id="Path 208195" d="M61.7352 30.7694C59.5043 30.7334 57.3064 31.3061 55.383 32.4245C55.2431 32.5087 55.1275 32.627 55.0473 32.7682C54.967 32.9093 54.9248 33.0684 54.9247 33.2303V35.0414C54.9235 35.2116 54.9698 35.3787 55.0586 35.5244C55.1474 35.6702 55.2752 35.7888 55.4279 35.8672C55.5805 35.9456 55.7522 35.9808 55.9238 35.9688C56.0954 35.9568 56.2603 35.8981 56.4003 35.7993C57.8776 34.7409 59.6563 34.1734 61.4804 34.1783C63.6766 34.1783 64.7471 35.3977 64.8404 38.0239L59.6651 38.7402C55.3102 39.3402 53.101 41.5196 53.101 45.2193C53.07 46.0023 53.2077 46.7829 53.5051 47.5093C53.8025 48.2356 54.2526 48.8911 54.8258 49.4322C56.2883 50.5877 58.1424 51.1462 60.0079 50.9931C61.8735 50.84 63.6091 49.987 64.8591 48.6088V49.6547C64.8593 49.9011 64.9584 50.1374 65.1346 50.3117C65.3109 50.4859 65.5498 50.5839 65.799 50.5842H67.842C68.0912 50.5839 68.3301 50.4859 68.5063 50.3117C68.6825 50.1374 68.7816 49.9011 68.7819 49.6547V38.1162C68.7819 33.2405 66.4112 30.7676 61.7343 30.7676M64.8591 41.322V42.63C64.9134 43.9523 64.4374 45.2422 63.5347 46.219C63.1146 46.676 62.5992 47.0374 62.0241 47.2782C61.449 47.5191 60.8278 47.6335 60.2036 47.6137C59.3742 47.6617 58.5571 47.398 57.916 46.8753C57.6475 46.6449 57.4345 46.3578 57.2929 46.0353C57.1512 45.7128 57.0845 45.363 57.0975 45.0116C57.0475 44.6023 57.0996 44.1871 57.2491 43.8022C57.3986 43.4174 57.641 43.0745 57.9552 42.8036C58.8482 42.2754 59.8504 41.9539 60.8868 41.863L64.8563 41.3248V41.3303" fill="#0068F5"/>
<path id="Path 208196" d="M87.4857 31.2025H85.5528C85.2889 31.2029 85.036 31.3069 84.8495 31.4915C84.663 31.6762 84.5581 31.9264 84.5579 32.1874V32.9111C83.9034 32.1975 83.0979 31.6356 82.1986 31.2654C81.2993 30.8952 80.3285 30.7259 79.3555 30.7695C78.0953 30.7181 76.8404 30.9577 75.6902 31.4693C74.54 31.9809 73.526 32.7504 72.7288 33.7169C71.0407 35.9535 70.1946 38.7026 70.3367 41.4901C70.2126 43.9839 71.0067 46.4376 72.572 48.3966C73.3303 49.2242 74.2557 49.8853 75.2885 50.3372C76.3213 50.789 77.4384 51.0216 78.5677 51.0199C79.697 51.0181 80.8133 50.7821 81.8447 50.3271C82.876 49.872 83.7993 49.2081 84.5551 48.3781V49.0437C84.5551 53.6111 82.4541 55.8301 78.1309 55.8301C76.3738 55.7897 74.6495 55.3507 73.0909 54.5471C72.9371 54.4711 72.7662 54.4354 72.5945 54.4433C72.4228 54.4512 72.256 54.5025 72.11 54.5923C71.9667 54.6796 71.8485 54.8018 71.7668 54.9473C71.685 55.0928 71.6425 55.2566 71.6433 55.4231V57.1843C71.643 57.3723 71.6965 57.5566 71.7978 57.7158C71.8991 57.8749 72.0439 58.0024 72.2155 58.0834C74.0879 58.9102 76.1218 59.3177 78.172 59.2769C85.0133 59.2769 88.4825 55.7009 88.4825 48.6477V32.1874C88.4823 31.9264 88.3774 31.6762 88.1909 31.4915C88.0044 31.3069 87.7515 31.2029 87.4876 31.2025M84.5597 39.056V41.7781C84.6221 43.3157 84.1015 44.8209 83.1 45.9985C82.6379 46.527 82.0617 46.9461 81.4139 47.2249C80.7661 47.5037 80.0633 47.6351 79.3573 47.6092C78.6628 47.6342 77.9722 47.4952 77.3428 47.2037C76.7133 46.9122 76.1632 46.4766 75.7379 45.9329C74.7449 44.5913 74.2505 42.952 74.3379 41.2917C74.221 39.4143 74.7378 37.5516 75.8069 35.996C76.2708 35.3983 76.8745 34.9209 77.566 34.6048C78.2576 34.2887 79.0164 34.1433 79.7773 34.1812C80.4152 34.1641 81.0494 34.2823 81.6372 34.528C82.2251 34.7737 82.7528 35.1411 83.1849 35.6055C83.6344 36.0615 83.9876 36.6014 84.2238 37.1939C84.46 37.7863 84.5736 38.4193 84.5597 39.056Z" fill="#0068F5"/>
<path id="Path 208197" d="M107.301 33.462C106.421 32.5512 105.352 31.8391 104.167 31.3744C102.983 30.9096 101.711 30.7033 100.439 30.7694C99.0993 30.7073 97.761 30.9199 96.5082 31.3937C95.2554 31.8676 94.1151 32.5925 93.1591 33.5229C91.3652 35.3469 90.4524 37.8992 90.4524 41.1106C90.3339 43.7471 91.2666 46.3243 93.0499 48.2875C93.9481 49.2011 95.0314 49.9167 96.2287 50.3874C97.426 50.8581 98.7104 51.0733 99.9976 51.0189C101.316 51.0752 102.632 50.8543 103.858 50.3708C105.084 49.8872 106.192 49.152 107.11 48.2137C108.935 46.1862 109.886 43.5335 109.761 40.8217C109.912 38.1482 109.031 35.5177 107.296 33.462M100.216 47.6081C99.4309 47.646 98.6471 47.5096 97.9222 47.209C97.1972 46.9084 96.5494 46.4512 96.0263 45.8709C94.9088 44.4974 94.3464 42.7627 94.448 41.0026C94.3393 39.1893 94.895 37.398 96.0132 35.9571C96.5303 35.3642 97.1775 34.8959 97.9054 34.588C98.6332 34.2801 99.4226 34.1406 100.213 34.1801C100.983 34.1296 101.755 34.2575 102.466 34.5538C103.177 34.8502 103.808 35.3066 104.31 35.8869C105.368 37.3519 105.881 39.134 105.762 40.9306C105.879 42.7084 105.366 44.471 104.312 45.9152C103.807 46.4912 103.174 46.9435 102.463 47.2368C101.752 47.5301 100.982 47.6562 100.213 47.6054" fill="#0068F5"/>
</g>
</g>
</g>
</g>
</g>
</g>
</g>
</svg>
