<svg xmlns="http://www.w3.org/2000/svg" xmlns:xlink="http://www.w3.org/1999/xlink" width="169" zoomAndPan="magnify" viewBox="0 0 126.75 141.749996" height="189" preserveAspectRatio="xMidYMid meet" version="1.0"><defs><clipPath id="cf7aa4a064"><path d="M 87 55 L 126.5 55 L 126.5 108 L 87 108 Z M 87 55 " clip-rule="nonzero"/></clipPath><clipPath id="78f226d830"><path d="M 63 34 L 126.5 34 L 126.5 63 L 63 63 Z M 63 34 " clip-rule="nonzero"/></clipPath><clipPath id="a6ec702760"><path d="M 32 0.015625 L 79 0.015625 L 79 52 L 32 52 Z M 32 0.015625 " clip-rule="nonzero"/></clipPath><clipPath id="efeba7e132"><path d="M 47 88 L 95 88 L 95 141.484375 L 47 141.484375 Z M 47 88 " clip-rule="nonzero"/></clipPath><clipPath id="c73e1c30ed"><path d="M 48.207031 55.984375 L 78.148438 55.984375 L 78.148438 63 L 48.207031 63 Z M 48.207031 55.984375 " clip-rule="nonzero"/></clipPath><clipPath id="3bb198f8d4"><path d="M 48.207031 60 L 78.148438 60 L 78.148438 89.667969 L 48.207031 89.667969 Z M 48.207031 60 " clip-rule="nonzero"/></clipPath></defs><g clip-path="url(#cf7aa4a064)"><path fill="#0170d0" d="M 96.40625 55.898438 L 87.332031 55.902344 L 112.640625 99.398438 L 97.390625 99.398438 L 92.746094 107.238281 L 126.253906 107.238281 L 113.164062 84.664062 Z M 96.40625 55.898438 " fill-opacity="1" fill-rule="nonzero"/></g><path fill="#0170d0" d="M 29.839844 85.574219 L 38.925781 85.59375 L 13.613281 42.097656 L 28.863281 42.097656 L 33.5 34.257812 L 0 34.257812 Z M 29.839844 85.574219 " fill-opacity="1" fill-rule="nonzero"/><path fill="#085697" d="M 63.128906 107.246094 L 63.128906 99.402344 L 13.613281 99.398438 L 21.191406 86.324219 L 16.648438 78.527344 L 0 107.238281 L 34.019531 107.238281 Z M 63.128906 107.246094 " fill-opacity="1" fill-rule="nonzero"/><g clip-path="url(#78f226d830)"><path fill="#085697" d="M 63.128906 34.25 L 63.128906 42.09375 L 112.640625 42.097656 L 105.0625 55.167969 L 109.609375 62.960938 L 126.253906 34.257812 Z M 63.128906 34.25 " fill-opacity="1" fill-rule="nonzero"/></g><g clip-path="url(#a6ec702760)"><path fill="#102a46" d="M 41.292969 51.921875 L 63.125 15.242188 L 69.84375 26.40625 L 78.996094 26.40625 L 63.125 0.0234375 L 32.164062 51.925781 Z M 41.292969 51.921875 " fill-opacity="1" fill-rule="nonzero"/></g><g clip-path="url(#efeba7e132)"><path fill="#102a46" d="M 94.800781 88.359375 L 85.695312 88.320312 L 63.125 126.253906 L 56.410156 115.089844 L 47.257812 115.089844 L 63.125 141.46875 Z M 94.800781 88.359375 " fill-opacity="1" fill-rule="nonzero"/></g><g clip-path="url(#c73e1c30ed)"><path fill="#085697" d="M 78.042969 58.996094 C 78.042969 59.191406 77.945312 59.390625 77.753906 59.582031 C 77.5625 59.777344 77.28125 59.964844 76.90625 60.148438 C 76.53125 60.332031 76.074219 60.503906 75.527344 60.667969 C 74.984375 60.832031 74.367188 60.984375 73.671875 61.125 C 72.980469 61.265625 72.226562 61.386719 71.414062 61.5 C 70.597656 61.609375 69.738281 61.699219 68.835938 61.777344 C 67.929688 61.851562 66.996094 61.910156 66.035156 61.949219 C 65.074219 61.988281 64.105469 62.003906 63.125 62.003906 C 62.144531 62.003906 61.175781 61.988281 60.214844 61.949219 C 59.253906 61.910156 58.324219 61.851562 57.417969 61.777344 C 56.511719 61.699219 55.652344 61.609375 54.839844 61.5 C 54.023438 61.386719 53.269531 61.265625 52.578125 61.125 C 51.886719 60.984375 51.265625 60.832031 50.722656 60.667969 C 50.179688 60.503906 49.71875 60.332031 49.34375 60.148438 C 48.96875 59.964844 48.6875 59.777344 48.496094 59.582031 C 48.304688 59.390625 48.210938 59.191406 48.210938 58.996094 C 48.210938 58.796875 48.304688 58.601562 48.496094 58.410156 C 48.6875 58.214844 48.96875 58.027344 49.34375 57.84375 C 49.71875 57.660156 50.179688 57.488281 50.722656 57.324219 C 51.265625 57.160156 51.886719 57.007812 52.578125 56.867188 C 53.269531 56.726562 54.023438 56.601562 54.839844 56.492188 C 55.652344 56.382812 56.511719 56.289062 57.417969 56.214844 C 58.324219 56.140625 59.253906 56.082031 60.214844 56.042969 C 61.175781 56.003906 62.144531 55.984375 63.125 55.984375 C 64.105469 55.984375 65.074219 56.003906 66.035156 56.042969 C 66.996094 56.082031 67.929688 56.140625 68.835938 56.214844 C 69.738281 56.289062 70.597656 56.382812 71.414062 56.492188 C 72.226562 56.601562 72.980469 56.726562 73.671875 56.867188 C 74.367188 57.007812 74.984375 57.160156 75.527344 57.324219 C 76.074219 57.488281 76.53125 57.660156 76.90625 57.84375 C 77.28125 58.027344 77.5625 58.214844 77.753906 58.410156 C 77.945312 58.601562 78.042969 58.796875 78.042969 58.996094 Z M 78.042969 58.996094 " fill-opacity="1" fill-rule="nonzero"/></g><g clip-path="url(#3bb198f8d4)"><path fill="#102a46" d="M 78.042969 60.667969 L 78.042969 67.289062 C 78.042969 69.296875 71.351562 70.902344 63.125 70.902344 C 54.898438 70.902344 48.210938 69.296875 48.210938 67.289062 L 48.210938 60.667969 C 48.210938 62.273438 54.898438 63.679688 63.125 63.679688 C 71.351562 63.679688 78.042969 62.273438 78.042969 60.667969 Z M 78.042969 78.863281 L 78.042969 85.816406 C 78.042969 87.890625 71.351562 89.5625 63.125 89.5625 C 54.898438 89.5625 48.210938 87.890625 48.210938 85.816406 L 48.210938 78.863281 C 48.210938 80.601562 54.898438 82.003906 63.125 82.003906 C 71.351562 82.003906 78.042969 80.601562 78.042969 78.863281 Z M 78.042969 69.496094 L 78.042969 76.453125 C 78.042969 78.527344 71.351562 80.265625 63.125 80.265625 C 54.898438 80.265625 48.210938 78.527344 48.210938 76.453125 L 48.210938 69.496094 C 48.210938 71.238281 54.898438 72.640625 63.125 72.640625 C 71.351562 72.640625 78.042969 71.238281 78.042969 69.496094 Z M 78.042969 69.496094 " fill-opacity="1" fill-rule="evenodd"/></g></svg>